<?xml version="1.0"?>
<svg width="60" height="60" xmlns="http://www.w3.org/2000/svg" xmlns:svg="http://www.w3.org/2000/svg">
 <!-- Created with SVG-edit - https://github.com/SVG-Edit/svgedit-->
 <g class="layer">
  <title>Layer 1</title>
  <path d="m13.61,34.48l13.41,-5.89l0,-3.48l-1.51,0c-0.75,0 -1.46,-0.14 -2.12,-0.38l0,1.86l-13.41,5.89l0,4.68l3.63,0l0,-2.69zm35.8,2.69l0,-4.68l-13.41,-5.89l0,-1.86c-0.65,0.24 -1.36,0.38 -2.11,0.38l-1.51,0l0,3.48l13.41,5.89l0,2.69l3.62,0zm-17.89,0l0,-12.06l-3.63,0l0,12.06l3.63,0zm20.28,1.61l-8.38,0c-2,0 -3.63,1.44 -3.63,3.21l0,7.43c0,1.77 1.62,3.21 3.63,3.21l8.38,0c2,0 3.63,-1.44 3.63,-3.21l0,-7.43c0,-1.77 -1.62,-3.21 -3.63,-3.21zm-35.8,0l-8.38,0c-2,0 -3.63,1.44 -3.63,3.21l0,7.43c0,1.77 1.62,3.21 3.63,3.21l8.38,0c2,0 3.63,-1.44 3.63,-3.21l0,-7.43c0,-1.77 -1.62,-3.21 -3.63,-3.21zm9.52,-15.27l8.38,0c2,0 3.63,-1.44 3.63,-3.21l0,-7.43c0,-1.77 -1.62,-3.21 -3.63,-3.21l-8.38,0c-2,0 -3.63,1.44 -3.63,3.21l0,7.43c0,1.77 1.62,3.21 3.63,3.21zm8.38,15.27l-8.38,0c-2,0 -3.63,1.44 -3.63,3.21l0,7.43c0,1.77 1.62,3.21 3.63,3.21l8.38,0c2,0 3.63,-1.44 3.63,-3.21l0,-7.43c0,-1.77 -1.62,-3.21 -3.63,-3.21z" fill="#000" id="svg_1" stroke="#fefefe" stroke-opacity="1" stroke-width='2'/>
 </g>
</svg>