<?xml version="1.0"?>
<svg width="60" height="60" xmlns="http://www.w3.org/2000/svg" xmlns:svg="http://www.w3.org/2000/svg">
 <!-- Created with SVG-edit - https://github.com/SVG-Edit/svgedit-->
 <g class="layer">
  <title>Layer 1</title>
  <g id="svg_8">
   <text fill="#cccccc" font-family="Courier" font-size="23" font-style="normal" font-weight="bold" id="svg_3" letter-spacing="3" stroke="#000000" stroke-opacity="0" stroke-width="0" text-anchor="middle" textLength="0" transform="matrix(0.751905 0 0 1.00034 4.37113 5.33653)" x="-297.98" xml:space="preserve" y="-121.79">A/Z</text>
   <path d="m-221.17,-144.18c2.28,0 4.46,0.4 6.52,1.06l-1.63,2.82l11.59,0l-2.9,-5.02l-2.9,-5.01l-1.52,2.64c-2.86,-1.04 -5.93,-1.63 -9.15,-1.63c-14.82,0 -26.83,12.01 -26.83,26.83c0,6.15 2.09,11.8 5.57,16.33l4.08,-3.13c-2.82,-3.66 -4.51,-8.23 -4.52,-13.2c0.02,-11.98 9.71,-21.68 21.7,-21.7l-0.01,0.01zm21.26,5.37l-4.08,3.13c2.82,3.66 4.51,8.22 4.52,13.19c-0.02,11.98 -9.71,21.67 -21.7,21.7c-2.12,0 -4.15,-0.35 -6.09,-0.93l1.54,-2.66l-11.59,0l2.9,5.01l2.9,5.02l1.62,-2.8c2.74,0.95 5.67,1.49 8.73,1.49c14.82,0 26.83,-12.02 26.84,-26.84c0,-6.15 -2.1,-11.8 -5.58,-16.33l-0.01,0.02z" fill="#cccccc" id="svg_6" stroke="#000000" stroke-opacity="0"/>
  </g>
  <ellipse cx="-70" cy="-19.3" fill="#cccccc" id="svg_11" opacity="0.5" rx="0" ry="0" stroke="#000000" stroke-opacity="0" transform="matrix(1 0 0 1 0 0)"/>
  <path d="m-370.42,85.12c0.03,-4.2 -0.02,-8.4 0.28,-12.59c7.29,1.38 14.49,3.63 21.65,5.66c0.38,-2.06 0.2,-3.77 0.54,-5.67c4.6,4 9.16,8.07 13.54,12.32c-4.2,4.83 -9.01,9.02 -13.73,13.31c-0.15,-2 -0.31,-4 -0.46,-6c-6.96,1.93 -14.33,3.93 -21.34,5.7c-0.48,-4.08 -0.46,-8.52 -0.47,-12.74l-0.01,0.01z" fill="#3f3f3f" id="svg_21" stroke="#000000" stroke-linecap="round" stroke-linejoin="round" stroke-opacity="0" transform="matrix(1 0 0 1 0 0) rotate(90 -352 85.3406)"/>
  <g id="svg_24" transform="matrix(1 0 0 1 0 0)">
   <ellipse cx="-150.32" cy="-57.44" fill="none" id="svg_10" rx="22.82" ry="22.94" stroke="#cccccc" stroke-width="6"/>
   <path d="m-135.2,-62.34l-9.88,0l0,-9.52l-9.87,0l0,9.52l-9.88,0l0,9.52l9.88,0l0,9.52l9.87,0l0,-9.52l9.88,0" fill="#b2b2b2" id="svg_9" stroke="#000000" stroke-linecap="round" stroke-linejoin="round" stroke-opacity="0"/>
  </g>
  <path d="m-33.58,-185.47l0,36.17l11.71,0l0,-36.17l-11.71,0zm-16.22,36.17l11.71,0l0,-44l-11.71,0l0,44zm-16.22,0l11.71,0l0,-28.34l-11.71,0l0,28.34z" fill="#cccccc" id="svg_25" stroke="#cccccc"/>
  <ellipse cx="672" cy="264.3" fill="#cccccc" id="svg_29" rx="7" ry="7" stroke="#cccccc" transform="matrix(1 0 0 1 0 0)"/>
  <ellipse cx="672" cy="264.3" fill="#cccccc" id="svg_30" rx="7" ry="7" stroke="#cccccc"/>
  <ellipse cx="672" cy="264.3" fill="#cccccc" id="svg_31" rx="7" ry="7" stroke="#cccccc" transform="matrix(1 0 0 1 0 0)"/>
  <path d="m56.07,35.98c1.22,-1.57 1.89,-3.41 1.89,-5.34c0,-2.59 -1.19,-5.03 -3.36,-6.86l-14.54,-12.3l-0.01,0c-2.07,-1.76 -4.94,-2.85 -8.1,-2.85c-3.16,0 -6.02,1.09 -8.09,2.85l0,0l-14.54,12.3c-2.17,1.83 -3.36,4.27 -3.36,6.86c0,2.59 1.19,5.03 3.36,6.86l13.11,11.09c0.53,0.5 1.07,0.97 1.66,1.4c2.13,1.71 4.92,2.65 7.88,2.65c3.07,0 5.94,-1.01 8.1,-2.84l14.14,-11.97c0.04,-0.03 0.08,-0.06 0.11,-0.09l0.29,-0.25c0.54,-0.46 1.03,-0.96 1.45,-1.49c0.01,-0.01 0.02,-0.03 0.03,-0.04l-0.01,0.02l-0.01,0zm-2.35,-5.33c0,1.21 -0.41,2.36 -1.18,3.34c-0.47,0.53 -0.94,0.99 -1.44,1.4l-0.03,0.03c-2.33,1.87 -4.95,2.4 -7.18,2.4c-1.22,0 -2.33,-0.16 -3.21,-0.35c-5.09,-1.08 -10.64,-4.79 -13.17,-10.2c1.37,0.49 2.86,0.76 4.44,0.76c5.92,0 10.79,-3.81 11.39,-8.68l8.26,6.99c1.37,1.15 2.12,2.68 2.12,4.31l0.01,0l-0.01,0zm-21.76,-18.41c3.98,0 7.2,2.74 7.2,6.1c0,3.36 -3.23,6.1 -7.2,6.1c-3.98,0 -7.2,-2.74 -7.2,-6.1c0,-3.36 3.23,-6.1 7.2,-6.1zm-19.64,22.74c-1.37,-1.15 -2.12,-2.69 -2.12,-4.32c0,-1.63 0.75,-3.17 2.12,-4.32l5.58,-4.73c-1.46,4.2 -2.08,8.62 -1.74,12.85c0.12,1.52 0.37,2.98 0.73,4.38l-4.56,-3.86l-0.01,0zm9.54,-12.07c1.22,8.12 8.82,16.13 17.79,18.05c1.46,0.32 2.89,0.47 4.28,0.47c0.02,0 0.04,0 0.05,0l-6.92,5.85c-1.37,1.15 -3.19,1.79 -5.1,1.79c-1.34,0 -2.62,-0.32 -3.74,-0.89l0,0c-0.44,-0.25 -0.86,-0.53 -1.27,-0.82c-0.03,-0.03 -0.07,-0.05 -0.1,-0.08l-1.4,-1.18c-2.87,-2.79 -4.68,-6.95 -5.07,-11.87c-0.29,-3.73 0.24,-7.62 1.48,-11.32" fill="#cccccc" id="svg_35" stroke="#999999" stroke-width="2"/>
  <path d="m-224.25,-30.35l-11.43,0l-9.35,8.78l0,10.73l28.22,26.49l20.78,-19.51l-28.22,-26.49zm-13.96,10.18c-1.11,-1.04 -1.11,-2.74 0,-3.78c1.11,-1.04 2.92,-1.04 4.03,0c1.11,1.05 1.11,2.73 0,3.78c-1.11,1.04 -2.92,1.04 -4.03,0z" fill="#bfbfbf" id="svg_1" stroke="#cccccc"/>
  <path d="m26.46,-139.36c-15.19,0 -27.5,12.09 -27.5,27c0,14.91 12.31,27 27.5,27c15.19,0 27.5,-12.09 27.5,-27c0,-14.91 -12.31,-27 -27.5,-27zm-4.42,45.07l-6.69,-6.57l11.71,-11.49l-11.71,-11.49l6.69,-6.57l18.4,18.06l-18.4,18.07l0,-0.01z" fill="#bfbfbf" id="svg_2" opacity="0.45" stroke="#cccccc"/>
  <path d="m-200.15,18.64l-30.52,0c-1.87,0 -3.39,1.47 -3.58,3.36l2.9,0c1.99,0 3.62,1.68 3.62,3.75c0,2.07 -1.62,3.75 -3.62,3.75l-2.94,0l0,1.87l2.94,0c2,0 3.62,1.68 3.62,3.75c0,2.07 -1.62,3.75 -3.62,3.75l-2.94,0l0,1.87l2.94,0c1.99,0 3.62,1.68 3.62,3.75c0,2.07 -1.62,3.76 -3.62,3.76l-2.94,0l0,1.86l2.94,0c1.99,0 3.62,1.68 3.62,3.75s-1.62,3.75 -3.62,3.75l-2.94,0l0,1.87l2.94,0c2,0 3.62,1.68 3.62,3.75c0,2.07 -1.62,3.75 -3.62,3.75l-2.93,0c0.04,2.03 1.64,3.67 3.61,3.67l30.52,0c2,0 3.62,-1.68 3.62,-3.75l0,-44.5c0,-2.07 -1.62,-3.75 -3.62,-3.75zm0.68,13.12c0,1.03 -0.81,1.87 -1.81,1.87l-18.54,0c-1,0 -1.81,-0.84 -1.81,-1.87l0,-8.2c0,-1.03 0.81,-1.87 1.81,-1.87l18.54,0c1,0 1.81,0.84 1.81,1.87l0,8.2zm-30.06,31.46c0,-1.04 -0.81,-1.88 -1.81,-1.88l-5.88,0c-1,0 -1.81,0.84 -1.81,1.88c0,1.03 0.81,1.87 1.81,1.87l5.88,0c1,0 1.81,-0.84 1.81,-1.87zm-7.69,-35.6l5.88,0c1,0 1.81,-0.84 1.81,-1.87c0,-1.04 -0.81,-1.87 -1.81,-1.87l-5.88,0c-1,0 -1.81,0.83 -1.81,1.87c0,1.03 0.81,1.87 1.81,1.87zm0,9.37l5.88,0c1,0 1.81,-0.84 1.81,-1.87s-0.81,-1.87 -1.81,-1.87l-5.88,0c-1,0 -1.81,0.84 -1.81,1.87s0.81,1.87 1.81,1.87zm0,9.37l5.88,0c1,0 1.81,-0.84 1.81,-1.88s-0.81,-1.87 -1.81,-1.87l-5.88,0c-1,0 -1.81,0.84 -1.81,1.87s0.81,1.88 1.81,1.88zm-1.81,7.49c0,1.04 0.81,1.88 1.81,1.88l5.88,0c1,0 1.81,-0.84 1.81,-1.88c0,-1.03 -0.81,-1.87 -1.81,-1.87l-5.88,0c-1,0 -1.81,0.84 -1.81,1.87z" fill="#cccccc" id="svg_4" stroke="#000000" stroke-opacity="0"/>
 </g>
</svg>